<svg width="73" height="107" viewBox="0 0 73 107" fill="none" xmlns="http://www.w3.org/2000/svg">
<g clip-path="url(#clip0_126_61)">
<path d="M18.4133 107C28.3473 107 36.4097 99.0108 36.4097 89.1668V71.3335H18.4133C8.47925 71.3335 0.416866 79.3228 0.416866 89.1668C0.416866 99.0108 8.47925 107 18.4133 107Z" fill="#0ACF83"/>
<path d="M0.416866 53.4998C0.416866 43.6558 8.47925 35.6665 18.4133 35.6665H36.4097V71.3332H18.4133C8.47925 71.3332 0.416866 63.3438 0.416866 53.4998Z" fill="#A259FF"/>
<path d="M0.416866 17.8333C0.416866 7.98933 8.47925 0 18.4133 0H36.4097V35.6667H18.4133C8.47925 35.6667 0.416866 27.6773 0.416866 17.8333Z" fill="#F24E1E"/>
<path d="M36.4097 0H54.4061C64.3401 0 72.4025 7.98933 72.4025 17.8333C72.4025 27.6773 64.3401 35.6667 54.4061 35.6667H36.4097V0Z" fill="#FF7262"/>
<path d="M72.4025 53.4998C72.4025 63.3438 64.3401 71.3332 54.4061 71.3332C44.4721 71.3332 36.4097 63.3438 36.4097 53.4998C36.4097 43.6558 44.4721 35.6665 54.4061 35.6665C64.3401 35.6665 72.4025 43.6558 72.4025 53.4998Z" fill="#1ABCFE"/>
</g>
<defs>
<clipPath id="clip0_126_61">
<rect width="72" height="107" fill="white" transform="translate(0.409668)"/>
</clipPath>
</defs>
</svg>
