<svg id="Layer_1" data-name="Layer 1" xmlns="http://www.w3.org/2000/svg" viewBox="0 0 500 500"><defs><style>.cls-1{fill:#474306;}.cls-2{fill:#f5ee84;}</style></defs><rect id="_18" data-name=" 18" class="cls-1" x="37.4" y="37.4" width="425.2" height="425.2" rx="66.44"/><path id="_34" data-name=" 34" class="cls-2" d="M188.44,163.2V339.26c0,1.87-.84,2.81-2.53,2.81H153.77c-1.51,0-2.25-.94-2.25-2.81V163.2c0-1.5.84-2.25,2.53-2.25h32.14a2,2,0,0,1,2.25,1.7,2.53,2.53,0,0,1,0,.55Z"/><path id="_35" data-name=" 35" class="cls-2" d="M292.76,345.88a87,87,0,0,1-37.5-7.85A59.61,59.61,0,0,1,229,314.29a76,76,0,0,1-9.55-39.77A73.37,73.37,0,0,1,229,237.71a70.13,70.13,0,0,1,27.82-27,89.65,89.65,0,0,1,44.1-10.1c.94,0,2.15,0,3.65.14s4.78.23,6.85.42V148c0-1.31.56-2,1.69-2h32.57a1.49,1.49,0,0,1,1.68,1.69V311.61c0,3.18.14,6.65.43,10.39s.51,7.11.7,10.11a2.89,2.89,0,0,1-1.69,2.81,128.25,128.25,0,0,1-27.06,8.42A151.49,151.49,0,0,1,292.76,345.88Zm18.65-34.83v-76.7a53,53,0,0,0-6.14-.84,55.74,55.74,0,0,0-5.77-.29,43.53,43.53,0,0,0-19.67,4.5,36.14,36.14,0,0,0-20.51,35.11,49.38,49.38,0,0,0,2.95,18,34.35,34.35,0,0,0,7.86,12.37,30.06,30.06,0,0,0,11.81,7,46.4,46.4,0,0,0,14.47,2.25c2.61,0,5-.1,7.3-.28a47.37,47.37,0,0,0,7.69-1.12Z"/></svg>