<svg width="103" height="117" viewBox="0 0 103 117" fill="none" xmlns="http://www.w3.org/2000/svg">
<path d="M9.49929 104.572L0 0L102.337 0.0399124L92.9174 104.492L51.0886 116.306L9.49929 104.572ZM85.2142 98.8645L93.1569 9.29973H51.2483L51.5676 108.084L85.2142 98.8645ZM47.3368 22.4311H37.159L37.0393 76.0343L17.2823 70.646L17.3222 82.8993L47.3368 91.0016V22.4311Z" fill="#D4B830"/>
<path opacity="0.986" d="M17.3223 82.8995L17.2823 70.6462C17.2823 70.6462 29.8949 74.1984 37.0393 76.0344L37.159 22.4712H47.3368V91.0018L17.3223 82.8995Z" fill="#EBEBEB" fill-opacity="0.9216"/>
<path d="M51.2483 9.26025H93.1569L85.2142 98.825L51.2483 108.045V9.26025ZM83.0589 83.8177L85.8129 50.3307L65.4573 52.6058V34.7247L87.17 34.6449L88.0481 22.4315L55.2795 22.5912L55.7185 67.0543L75.5154 63.6617L75.236 73.5601L55.2795 78.8685L55.4791 91.0021L83.0589 83.8177Z" fill="#FDD83C"/>
</svg>
