<svg width="133" height="129" viewBox="0 0 133 129" fill="none" xmlns="http://www.w3.org/2000/svg">
<path d="M23.8017 1.03976e-05H109.25C112.328 -0.00289028 115.376 0.601152 118.22 1.77757C121.064 2.95398 123.648 4.67967 125.824 6.85588C128 9.03209 129.726 11.6161 130.902 14.46C132.079 17.3039 132.683 20.3519 132.68 23.4295V105.571C132.683 108.648 132.079 111.696 130.902 114.54C129.726 117.384 128 119.968 125.824 122.144C123.648 124.32 121.064 126.046 118.22 127.222C115.376 128.399 112.328 129.003 109.25 129H23.8017C20.7241 129.003 17.6761 128.399 14.8322 127.222C11.9883 126.046 9.40428 124.32 7.22807 122.144C5.05187 119.968 3.32617 117.384 2.14976 114.54C0.973344 111.696 0.369302 108.648 0.372203 105.571V23.4295C0.369302 20.3519 0.973344 17.3039 2.14976 14.46C3.32617 11.6161 5.05187 9.03209 7.22807 6.85588C9.40428 4.67967 11.9883 2.95398 14.8322 1.77757C17.6761 0.601152 20.7241 -0.00289028 23.8017 1.03976e-05Z" fill="#474306"/>
<path d="M64.4864 77.3995H43.9787L39.7889 90.3547C39.7421 90.5908 39.6087 90.8009 39.4149 90.9437C39.2211 91.0865 38.9809 91.1517 38.7415 91.1265H28.3774C27.771 91.1265 27.6056 90.7957 27.771 90.1341L45.5223 39.0303C45.6876 38.479 45.853 37.8726 46.0735 37.2111C46.2954 36.0296 46.4061 34.8299 46.4043 33.6277C46.3878 33.4897 46.4241 33.3504 46.5058 33.238C46.5876 33.1255 46.7089 33.0481 46.8453 33.0213H61.1235C61.5646 33.0213 61.7851 33.1867 61.8402 33.4623L81.962 90.2444C82.1274 90.8508 81.962 91.1265 81.4107 91.1265H69.8889C69.6941 91.1452 69.4988 91.0947 69.3375 90.9838C69.1762 90.8729 69.0591 90.7087 69.0069 90.52L64.4864 77.3995ZM47.1761 66.2085H61.1787C60.8479 65.0508 60.4069 63.6726 59.9107 62.2393C59.4146 60.8059 58.9184 59.1521 58.4223 57.4982C57.9261 55.8444 57.3748 54.1354 56.8235 52.4264C56.2723 50.7175 55.7761 49.1188 55.3351 47.52C54.894 45.9213 54.5082 44.5431 54.1223 43.22H54.012C53.5166 45.6228 52.8908 47.9968 52.1376 50.3316C51.3107 52.9777 50.4838 55.7341 49.6017 58.4905C48.8299 61.3021 48.003 63.8931 47.1761 66.2085ZM93.98 42.4482C93.0751 42.468 92.1752 42.3076 91.3329 41.9764C90.4906 41.6451 89.7226 41.1496 89.0735 40.5188C87.8105 39.1377 87.1378 37.3174 87.1992 35.447C87.1666 34.5356 87.3265 33.6276 87.6685 32.7822C88.0105 31.9368 88.5268 31.173 89.1838 30.5405C90.5089 29.2881 92.267 28.5967 94.0902 28.6111C96.2402 28.6111 97.8941 29.2726 99.1069 30.5405C100.328 31.8773 100.981 33.6372 100.926 35.447C100.96 36.3784 100.806 37.3071 100.475 38.1782C100.144 39.0493 99.6408 39.8452 98.9966 40.5188C98.347 41.1804 97.5631 41.695 96.6977 42.0279C95.8322 42.3607 94.9055 42.5041 93.98 42.4482ZM87.8056 90.2995V47.8508C87.8056 47.2995 88.0261 47.079 88.5223 47.079H99.4377C99.9338 47.079 100.154 47.3547 100.154 47.8508V90.2995C100.154 90.9059 99.9338 91.1816 99.4377 91.1816H88.6325C88.5167 91.1911 88.4001 91.1744 88.2917 91.1326C88.1832 91.0908 88.0855 91.0251 88.006 90.9403C87.9265 90.8554 87.8672 90.7538 87.8325 90.6428C87.7978 90.5319 87.7886 90.4145 87.8056 90.2995Z" fill="#FBF8CC"/>
</svg>
