<svg width="102" height="144" viewBox="0 0 102 144" fill="none" xmlns="http://www.w3.org/2000/svg">
<path d="M9.7147 131.7L0.543152 28.8301H101.323L92.1414 131.684L50.8712 143.125L9.7147 131.7Z" fill="#264DE4"/>
<path d="M84.2812 125.134L92.1272 37.2412H50.9329V134.38L84.2812 125.134Z" fill="#2965F1"/>
<path d="M21.5687 75.3945L22.6995 88.0109H50.9329V75.3945H21.5687Z" fill="#EBEBEB"/>
<path d="M20.4435 62.4746H50.9329V49.8579H50.8893H19.2966L20.4435 62.4746Z" fill="#EBEBEB"/>
<path d="M50.8748 121.304L50.9329 121.287V108.161L50.8776 108.176L36.8265 104.382L35.9282 94.3193H29.1005H23.2632L25.0308 114.129L50.8748 121.304Z" fill="#EBEBEB"/>
<path d="M24.2609 0.874512H39.5417V7.26467H30.6511V13.6548H39.5417V20.045H24.2609V0.874512Z" fill="black"/>
<path d="M42.5979 0.874512H57.8787V6.43117H48.9881V7.5425H57.8787V20.3228H42.5979V14.4883H51.4886V13.377H42.5979V0.874512Z" fill="black"/>
<path d="M60.9349 0.874512H76.2157V6.43117H67.3251V7.5425H76.2157V20.3228H60.9349V14.4883H69.8256V13.377H60.9349V0.874512Z" fill="black"/>
<path d="M82.4939 49.8579H50.8893V62.4746H68.6673L67.5193 75.3941H50.8893V88.0105H66.4251L64.9607 104.373L50.8893 108.171V121.297L76.7539 114.129L76.9436 111.997L79.9084 78.782L80.2162 75.3941L82.4939 49.8579Z" fill="white"/>
</svg>
