<svg width="97" height="138" viewBox="0 0 97 138" fill="none" xmlns="http://www.w3.org/2000/svg">
<path d="M8.78222 126.208L0 27.6177H96.5432L87.7609 126.171L48.197 137.149L8.78222 126.208Z" fill="#E44D26"/>
<path d="M48.2716 128.782L80.2273 119.923L87.761 35.6812H48.2716V128.782Z" fill="#F16529"/>
<path d="M48.2716 72.2559H32.2565L31.1597 59.8745H48.2716V47.7993H48.2343H17.9451L18.2486 51.0151L21.2009 84.3338H48.2716V72.2559Z" fill="#EBEBEB"/>
<path d="M48.2716 103.642L48.2343 103.682L34.7562 100.008L33.8857 90.3926H27.3343H21.7679L23.4343 109.36L48.2343 116.249L48.2716 116.212V103.642Z" fill="#EBEBEB"/>
<path d="M8.97125 0.850586H15.1047V6.90949H20.7084V0.850586H26.8418V19.2136H20.7084V13.0429H15.1047V19.2136H8.97125V0.850586Z" fill="black"/>
<path d="M34.9452 6.94676H29.5305V0.850586H46.4933V6.94676H41.0786V19.2136H34.9452V6.94676Z" fill="black"/>
<path d="M49.2193 0.850586H55.619L59.5562 7.32478L63.4908 0.850586H69.8904V19.2136H63.7942V10.1253L59.5535 16.674H59.4391L55.1984 10.1253V19.2509H49.1794V0.850586H49.2193Z" fill="black"/>
<path d="M72.9571 0.850586H79.0905V13.1547H87.7237V19.2136H72.9571V0.850586Z" fill="black"/>
<path d="M48.2343 72.2559V84.3337H63.1127L61.7124 100.008L48.2343 103.642V116.249L72.9944 109.36L73.1834 107.316L76.0238 75.5116L76.3273 72.2559H73.0716H48.2343Z" fill="white"/>
<path d="M48.2343 47.7993V55.2957V59.8373V59.8745H77.3868H77.4241L77.6903 57.1486L78.22 51.0151L78.5235 47.7993H48.2343Z" fill="white"/>
</svg>
