<svg width="128" height="128" viewBox="0 0 128 128" fill="none" xmlns="http://www.w3.org/2000/svg">
<path d="M107.889 0H20.0321C9.00375 0 0.0634766 8.94027 0.0634766 19.9687V107.826C0.0634766 118.854 9.00375 127.795 20.0321 127.795H107.889C118.918 127.795 127.858 118.854 127.858 107.826V19.9687C127.858 8.94027 118.918 0 107.889 0Z" fill="#474306"/>
<path d="M45.4589 37.8087V90.7238C45.4589 91.2859 45.2065 91.5684 44.6985 91.5684H35.0388C34.585 91.5684 34.3625 91.2859 34.3625 90.7238V37.8087C34.3625 37.3579 34.615 37.1325 35.1229 37.1325H44.7827C44.94 37.111 45.0995 37.1527 45.2262 37.2485C45.3529 37.3442 45.4366 37.4862 45.4589 37.6434C45.4649 37.6983 45.4649 37.7538 45.4589 37.8087Z" fill="#FBF8CC"/>
<path d="M76.8124 92.7143C72.9269 92.7751 69.0767 91.9692 65.5418 90.355C62.2491 88.8307 59.4969 86.3426 57.6493 83.2199C55.6182 79.5727 54.6255 75.4387 54.779 71.2669C54.7468 67.391 55.7368 63.575 57.6493 60.2036C59.6185 56.7667 62.5164 53.9543 66.0106 52.0887C70.0966 49.9604 74.66 48.9152 79.2649 49.0532C79.5475 49.0532 79.9111 49.0532 80.362 49.0952C80.8128 49.1373 81.7986 49.1644 82.4207 49.2215V33.2411C82.4207 32.8474 82.589 32.64 82.9287 32.64H92.7176C92.7865 32.6304 92.8566 32.637 92.9224 32.6592C92.9882 32.6814 93.048 32.7186 93.097 32.7678C93.146 32.8171 93.1828 32.8771 93.2046 32.9431C93.2264 33.0091 93.2326 33.0792 93.2226 33.148V82.4144C93.2226 83.3702 93.2646 84.4131 93.3518 85.5371C93.439 86.6612 93.5051 87.6741 93.5622 88.5757C93.5731 88.7514 93.5303 88.9262 93.4396 89.077C93.3489 89.2278 93.2145 89.3475 93.0543 89.4203C90.4451 90.5617 87.7175 91.4104 84.9213 91.9509C82.2466 92.4471 79.5328 92.7026 76.8124 92.7143ZM82.4177 82.2461V59.1938C81.8081 59.0737 81.1919 58.9894 80.5723 58.9413C79.9962 58.8823 79.4173 58.8532 78.8382 58.8541C76.7888 58.8357 74.7638 59.299 72.9263 60.2066C70.9587 61.1441 69.3187 62.6517 68.2193 64.5337C67.12 66.4156 66.6122 68.5847 66.762 70.759C66.719 72.6017 67.0197 74.4363 67.6486 76.1689C68.1594 77.5637 68.9652 78.8319 70.011 79.8868C71.016 80.8525 72.2309 81.5725 73.5605 81.9906C74.9652 82.4448 76.4331 82.6731 77.9095 82.6669C78.6939 82.6669 79.4122 82.6368 80.1035 82.5827C80.8818 82.534 81.6548 82.4214 82.4147 82.2461H82.4177Z" fill="#FBF8CC"/>
</svg>
