<svg width="133" height="150" viewBox="0 0 133 150" fill="none" xmlns="http://www.w3.org/2000/svg">
<g clip-path="url(#clip0_126_67)">
<path d="M132.323 75.0132C132.323 66.2926 121.372 58.0282 104.583 52.9032C108.457 35.8378 106.735 22.2606 99.1478 17.9137C97.3989 16.8941 95.354 16.4111 93.1208 16.4111V22.3947C94.3585 22.3947 95.354 22.6362 96.1881 23.0924C99.8473 25.1853 101.435 33.1546 100.197 43.4046C99.9011 45.9268 99.4168 48.5832 98.8249 51.2933C93.5513 50.0053 87.7935 49.0125 81.7397 48.3686C78.1074 43.4046 74.3406 38.8967 70.5469 34.9523C79.3182 26.8221 87.5513 22.3679 93.1478 22.3679V16.3843C85.7486 16.3843 76.0625 21.6434 66.2688 30.7665C56.4751 21.6971 46.789 16.4916 39.3899 16.4916V22.4752C44.9594 22.4752 53.2195 26.9026 61.9908 34.9792C58.224 38.9235 54.4572 43.4046 50.8787 48.3686C44.798 49.0125 39.0401 50.0053 33.7666 51.3201C33.1477 48.6369 32.6903 46.0341 32.3675 43.5387C31.1029 33.2887 32.6634 25.3195 36.2957 23.1997C37.1029 22.7167 38.1522 22.5021 39.3899 22.5021V16.5184C37.1298 16.5184 35.085 17.0014 33.3092 18.0211C25.7486 22.3679 24.0536 35.9183 27.9549 52.9301C11.2195 58.0819 0.322632 66.3195 0.322632 75.0132C0.322632 83.7337 11.2733 91.9981 28.0625 97.1231C24.1881 114.189 25.9101 127.766 33.4975 132.113C35.2464 133.132 37.2912 133.615 39.5513 133.615C46.9504 133.615 56.6365 128.356 66.4303 119.233C76.224 128.302 85.9101 133.508 93.3092 133.508C95.5693 133.508 97.6141 133.025 99.3899 132.005C106.95 127.658 108.646 114.108 104.744 97.0963C121.426 91.9713 132.323 83.7069 132.323 75.0132ZM97.2912 57.1159C96.2957 60.5773 95.0581 64.146 93.659 67.7147C92.5558 65.5682 91.3989 63.4216 90.1343 61.275C88.8966 59.1284 87.5782 57.0354 86.2599 54.9962C90.0805 55.5597 93.7666 56.2573 97.2912 57.1159ZM84.9684 85.6925C82.8697 89.3149 80.7173 92.7494 78.4841 95.9425C74.4751 96.2913 70.4123 96.4791 66.3226 96.4791C62.2599 96.4791 58.1971 96.2913 54.215 95.9693C51.9818 92.7763 49.8025 89.3685 47.7038 85.773C45.659 82.2579 43.8025 78.6892 42.1074 75.0937C43.7756 71.4981 45.659 67.9026 47.6769 64.3875C49.7756 60.7651 51.928 57.3306 54.1612 54.1375C58.1702 53.7887 62.233 53.6009 66.3226 53.6009C70.3854 53.6009 74.4482 53.7887 78.4303 54.1107C80.6634 57.3038 82.8428 60.7115 84.9415 64.307C86.9863 67.8221 88.8428 71.3908 90.5379 74.9863C88.8428 78.5819 86.9863 82.1774 84.9684 85.6925ZM93.659 82.2043C95.1119 85.7998 96.3495 89.3954 97.372 92.8836C93.8473 93.7422 90.1343 94.4667 86.2868 95.0302C87.6051 92.9641 88.9235 90.8443 90.1612 88.6709C91.3989 86.5243 92.5558 84.3509 93.659 82.2043ZM66.3764 110.835C63.8742 108.259 61.372 105.388 58.8966 102.248C61.3181 102.355 63.7935 102.436 66.2957 102.436C68.8249 102.436 71.3271 102.382 73.7756 102.248C71.354 105.388 68.8518 108.259 66.3764 110.835ZM46.3585 95.0302C42.5379 94.4667 38.8518 93.7691 35.3271 92.9104C36.3226 89.449 37.5603 85.8803 38.9594 82.3116C40.0625 84.4582 41.2195 86.6048 42.4841 88.7514C43.7486 90.898 45.0401 92.9909 46.3585 95.0302ZM66.2419 39.1919C68.7442 41.7678 71.2464 44.6388 73.7217 47.7782C71.3002 47.6709 68.8249 47.5904 66.3226 47.5904C63.7935 47.5904 61.2913 47.6441 58.8428 47.7782C61.2643 44.6388 63.7666 41.7678 66.2419 39.1919ZM46.3316 54.9962C45.0132 57.0623 43.6948 59.182 42.4572 61.3555C41.2195 63.5021 40.0625 65.6487 38.9594 67.7953C37.5065 64.1997 36.2688 60.6042 35.2464 57.1159C38.7711 56.2841 42.4841 55.5597 46.3316 54.9962ZM21.9818 88.5904C12.4572 84.5387 6.29573 79.2259 6.29573 75.0132C6.29573 70.8005 12.4572 65.4608 21.9818 61.436C24.2957 60.4432 26.8249 59.5577 29.4347 58.7259C30.9684 63.985 32.9863 69.4589 35.4886 75.0668C33.0132 80.648 31.0222 86.095 29.5155 91.3273C26.8518 90.4955 24.3226 89.5832 21.9818 88.5904ZM36.4572 126.934C32.798 124.841 31.2105 116.872 32.4482 106.622C32.7442 104.1 33.2285 101.443 33.8204 98.7331C39.0939 100.021 44.8518 101.014 50.9056 101.658C54.5379 106.622 58.3047 111.13 62.0984 115.074C53.3271 123.204 45.0939 127.658 39.4975 127.658C38.2868 127.632 37.2643 127.39 36.4572 126.934ZM100.278 106.488C101.542 116.738 99.9818 124.707 96.3495 126.827C95.5424 127.31 94.493 127.524 93.2554 127.524C87.6859 127.524 79.4258 123.097 70.6545 115.02C74.4213 111.076 78.1881 106.595 81.7666 101.631C87.8473 100.987 93.6051 99.9942 98.8787 98.6794C99.4975 101.389 99.9818 103.992 100.278 106.488ZM110.637 88.5904C108.323 89.5832 105.793 90.4687 103.184 91.3005C101.65 86.0413 99.6321 80.5675 97.1298 74.9595C99.6051 69.3784 101.596 63.9314 103.103 58.6991C105.767 59.5309 108.296 60.4432 110.663 61.436C120.188 65.4877 126.35 70.8005 126.35 75.0132C126.323 79.2259 120.161 84.5655 110.637 88.5904Z" fill="#61DAFB"/>
<path d="M66.2957 87.2758C73.0866 87.2758 78.5917 81.7858 78.5917 75.0134C78.5917 68.2411 73.0866 62.751 66.2957 62.751C59.5048 62.751 53.9998 68.2411 53.9998 75.0134C53.9998 81.7858 59.5048 87.2758 66.2957 87.2758Z" fill="#61DAFB"/>
</g>
<defs>
<clipPath id="clip0_126_67">
<rect width="132" height="150" fill="white" transform="translate(0.322632)"/>
</clipPath>
</defs>
</svg>
