<svg width="188" height="113" viewBox="0 0 188 113" fill="none" xmlns="http://www.w3.org/2000/svg">
<path d="M93.6667 0C68.6891 0 53.0775 12.4891 46.8333 37.4667C56.2 24.9775 67.1275 20.2942 79.6167 23.4167C86.7419 25.1978 91.8351 30.3678 97.4726 36.0895C106.656 45.4115 117.285 56.2 140.5 56.2C165.478 56.2 181.089 43.7109 187.333 18.7333C177.967 31.2225 167.039 35.9058 154.55 32.7833C147.425 31.0022 142.332 25.8322 136.694 20.1105C127.51 10.7885 116.882 0 93.6667 0ZM46.8333 56.2C21.8558 56.2 6.2442 68.6891 0 93.6667C9.36667 81.1775 20.2942 76.4942 32.7833 79.6167C39.9086 81.3978 45.0017 86.5678 50.6393 92.2895C59.823 101.612 70.4512 112.4 93.6667 112.4C118.644 112.4 134.256 99.9109 140.5 74.9333C131.133 87.4225 120.206 92.1058 107.717 88.9833C100.591 87.2022 95.4983 82.0323 89.8607 76.3105C80.677 66.9885 70.0488 56.2 46.8333 56.2Z" fill="url(#paint0_linear_272_99)"/>
<defs>
<linearGradient id="paint0_linear_272_99" x1="-1332.25" y1="5524.69" x2="-777.54" y2="11749.3" gradientUnits="userSpaceOnUse">
<stop stop-color="#474306"/>
<stop offset="1" stop-color="#0ED7B5"/>
</linearGradient>
</defs>
</svg>
